<svg width="40" height="40" viewBox="0 0 40 40" fill="none" xmlns="http://www.w3.org/2000/svg">
<path d="M32.8194 0.464844H7.05294C5.34452 0.464844 3.70607 1.14351 2.49803 2.35155C1.29 3.55958 0.611328 5.19803 0.611328 6.90645L0.611328 32.6729C0.611328 34.3813 1.29 36.0198 2.49803 37.2278C3.70607 38.4358 5.34452 39.1145 7.05294 39.1145H32.8194C34.5278 39.1145 36.1662 38.4358 37.3743 37.2278C38.5823 36.0198 39.261 34.3813 39.261 32.6729V6.90645C39.261 5.19803 38.5823 3.55958 37.3743 2.35155C36.1662 1.14351 34.5278 0.464844 32.8194 0.464844V0.464844ZM36.0402 32.6729C36.0402 33.5271 35.7008 34.3463 35.0968 34.9503C34.4928 35.5544 33.6736 35.8937 32.8194 35.8937H7.05294C6.19873 35.8937 5.3795 35.5544 4.77548 34.9503C4.17147 34.3463 3.83213 33.5271 3.83213 32.6729V6.90645C3.83213 6.05224 4.17147 5.23302 4.77548 4.629C5.3795 4.02498 6.19873 3.68565 7.05294 3.68565H32.8194C33.6736 3.68565 34.4928 4.02498 35.0968 4.629C35.7008 5.23302 36.0402 6.05224 36.0402 6.90645V32.6729Z" fill="white"/>
<path d="M25.7201 24.1208V36.3661H21.0641V24.1208H16.5549V19.4631H21.0641V16.2458C21.0641 12.4202 24.1483 9.32129 27.9738 9.32129H31.0539V13.979H27.9738C26.6986 13.979 25.7201 14.9575 25.7201 16.2327V19.4631H31.1291L30.3621 24.1208H25.7201Z" fill="white"/>
</svg>
