<?xml version="1.0" encoding="utf-8"?>
<!-- Generator: Adobe Illustrator 23.0.1, SVG Export Plug-In . SVG Version: 6.00 Build 0)  -->
<svg version="1.1" id="Layer_1" xmlns="http://www.w3.org/2000/svg" xmlns:xlink="http://www.w3.org/1999/xlink" x="0px" y="0px"
	 viewBox="0 0 512 512" style="enable-background:new 0 0 512 512;" xml:space="preserve">
<style type="text/css">
	.st0{fill:#010101;}
</style>
<title>01</title>
<path class="st0" d="M478.4,6H33.6C18.3,6,6,18.4,6,33.6v444.8C6,493.7,18.4,506,33.6,506h239.5V312.6h-64.9V237h64.9v-55.7
	c0-64.6,39.4-99.8,97-99.8c27.6,0,51.3,2.1,58.2,3V152h-39.7c-31.3,0-37.4,14.9-37.4,36.8V237h75l-9.8,75.7h-65.2V506h127.2
	c15.2,0,27.6-12.4,27.6-27.6V33.6C506,18.3,493.6,6,478.4,6z"/>
</svg>
