<svg width="40" height="40" viewBox="0 0 40 40" fill="none" xmlns="http://www.w3.org/2000/svg">
<path d="M32.7913 0.464844H7.02486C5.31644 0.464844 3.67799 1.14351 2.46996 2.35155C1.26192 3.55958 0.583252 5.19803 0.583252 6.90645L0.583252 32.6729C0.583252 34.3813 1.26192 36.0198 2.46996 37.2278C3.67799 38.4358 5.31644 39.1145 7.02486 39.1145H32.7913C34.4997 39.1145 36.1382 38.4358 37.3462 37.2278C38.5542 36.0198 39.2329 34.3813 39.2329 32.6729V6.90645C39.2329 5.19803 38.5542 3.55958 37.3462 2.35155C36.1382 1.14351 34.4997 0.464844 32.7913 0.464844V0.464844ZM36.0121 32.6729C36.0121 33.5271 35.6728 34.3463 35.0687 34.9503C34.4647 35.5544 33.6455 35.8937 32.7913 35.8937H7.02486C6.17065 35.8937 5.35143 35.5544 4.74741 34.9503C4.14339 34.3463 3.80406 33.5271 3.80406 32.6729V6.90645C3.80406 6.05224 4.14339 5.23302 4.74741 4.629C5.35143 4.02498 6.17065 3.68565 7.02486 3.68565H32.7913C33.6455 3.68565 34.4647 4.02498 35.0687 4.629C35.6728 5.23302 36.0121 6.05224 36.0121 6.90645V32.6729Z" fill="white"/>
<path d="M19.9075 10.127C17.9965 10.127 16.1284 10.6936 14.5394 11.7554C12.9504 12.8171 11.712 14.3261 10.9806 16.0917C10.2493 17.8573 10.058 19.8001 10.4308 21.6744C10.8036 23.5487 11.7239 25.2704 13.0752 26.6217C14.4265 27.973 16.1482 28.8933 18.0225 29.2661C19.8968 29.6389 21.8396 29.4476 23.6052 28.7163C25.3707 27.9849 26.8798 26.7465 27.9415 25.1575C29.0032 23.5685 29.5699 21.7004 29.5699 19.7894C29.5699 17.2267 28.5519 14.7691 26.7399 12.957C24.9278 11.145 22.4702 10.127 19.9075 10.127ZM19.9075 26.231C18.6335 26.231 17.3881 25.8532 16.3288 25.1454C15.2695 24.4375 14.4438 23.4315 13.9563 22.2545C13.4687 21.0774 13.3411 19.7822 13.5897 18.5327C13.8382 17.2831 14.4518 16.1353 15.3526 15.2345C16.2535 14.3336 17.4013 13.7201 18.6508 13.4715C19.9004 13.223 21.1956 13.3505 22.3726 13.8381C23.5497 14.3256 24.5557 15.1513 25.2635 16.2106C25.9713 17.2699 26.3491 18.5153 26.3491 19.7894C26.3491 21.4978 25.6705 23.1362 24.4624 24.3443C23.2544 25.5523 21.616 26.231 19.9075 26.231Z" fill="white"/>
<path d="M30.3751 11.7375C31.7092 11.7375 32.7907 10.656 32.7907 9.32185C32.7907 7.98775 31.7092 6.90625 30.3751 6.90625C29.041 6.90625 27.9595 7.98775 27.9595 9.32185C27.9595 10.656 29.041 11.7375 30.3751 11.7375Z" fill="white"/>
</svg>
