<?xml version="1.0" encoding="utf-8"?>
<!-- Generator: Adobe Illustrator 21.0.0, SVG Export Plug-In . SVG Version: 6.00 Build 0)  -->
<svg width="119px" height="45px" version="1.1" id="Layer_2" xmlns="http://www.w3.org/2000/svg" xmlns:xlink="http://www.w3.org/1999/xlink" x="0px" y="0px"
	 viewBox="0 0 937.8 373.4" style="enable-background:new 0 0 937.8 373.4;" xml:space="preserve">
<style type="text/css">
	.st0{fill-rule:evenodd;clip-rule:evenodd;}
</style>
<g>
	<path class="st0" d="M881.7,118.6l-11.1-3.5L864,136c0,0,10.7,7.9,22.9,11.8c16.7,5.3,32.2,0.4,37.3-15.9
		c8.1-25.6-30.1-32.2-26.1-44.8c1.4-4.3,6.3-6.5,14-4.1c4.7,1.5,9.1,4.7,9.1,4.7L921,97.8l10,3.2l6.8-19.6c0,0-10.3-8-22.5-11.9
		c-15.8-5-30.2-0.7-34.9,14.3c-8.5,26.9,30,32.8,26,45.6c-1.8,5.8-9,6.8-15.9,4.6c-6.3-2-9.9-5.7-9.9-5.7L881.7,118.6z M822.6,91
		l-16.8-5.1l16.5-23.2L822.6,91z M848.4,123.6l-6.7-5.4L838,46.5l-17.5-5l-43.7,56.9l-8.9,0.6l-2.8,9.3l32.9,10.1l2.8-9.3l-7.6-5.7
		l5.1-7l24.2,7.4l0.2,8.8l-9.1,0.4l-2.8,9.3l34.7,10.6L848.4,123.6z M657.4,89.3l32,5.7l1.7-9.5l-8-4.9l7.2-40.3l0.9,6.2l8.1,28.9
		l12.2,1.6l17.4-24.1l4.4-6.9l-7.6,42.2l-9.4,1.8l-1.7,9.5l33.5,6l1.7-9.5l-7.8-4.9l9.5-52.8l8.7-1.9l1.8-10.1l-27-4.3l-24.2,33.7
		l-10.1-40.4l-29.1-4.6l-1.7,9.5l7.8,4.9l-9.5,52.8l-9,1.9L657.4,89.3z M557.6,79.5l33.7,3.3l0.9-9.6l-6.9-3.4l14.3-15.1l10.8,18
		l-5.4,1.8l-0.9,9.6l35.2,3.5l0.9-9.6l-7.7-3.5l-19.3-30.9l23.5-24.4l7.7-1.5l1-10.2l-32.7-2.6l-0.9,9.6l5.9,3l-12.6,14l-10.2-16.7
		l5.9-1.4l1-10.2l-34.1-2.8l-0.9,9.6l6.4,2.8l18.4,29.5l-25.7,25.4l-7.3,2.1L557.6,79.5z M389.1,83.7l33-1.4l-0.4-9.7l-9-3.1
		l-1.6-38.5l32.7,50.4l19-0.8L460.1,14l8.4-3.8L468.1,0l-32.5,1.9l0.4,9.7l8.5,3.1l1.6,39l-33-51.4L385.8,4l0.4,9.7l8.7,3.1
		l2.2,53.6l-8.4,3.8L389.1,83.7z M335.4,56.4L318,58.8l5.1-28L335.4,56.4z M372.6,75l-8.4-2L330.5,9.5l-18,2.9l-15.5,70l-7.8,4.3
		l1.4,9.6l34.1-4.8l-1.4-9.6l-9.3-1.9l1.7-8.5l25.1-3.5l3.9,7.9l-8,4.2l1.4,9.6l35.9-5.1L372.6,75z M229.3,96.7l-4.9-21.3l6.4-1.5
		c10-2.3,15.5,0.2,17.4,8.3c1.4,6.1-1.9,10.6-9.6,12.4L229.3,96.7z M221.6,63.7l-4.3-18.7l9.4-2.2c5.3-1.2,10,0.4,11.4,6.1
		c1.6,6.9-1.9,11.3-10,13.2L221.6,63.7z M214.2,31.7l-25.4,6.5l2.2,9.4l9.1,1.4l12.1,52.2l-7.6,5.3l2.2,9.4l35.3-8.2
		c18-4.2,27.3-13.4,23.6-29.7c-2-8.6-8.9-13.5-20-14.1c8.1-4.8,11.3-11.8,9.1-21.4c-3-13.1-14.5-16.9-28.9-13.6L214.2,31.7z
		 M132.7,94.3l-7.6-21.9l8.8-3.1c6.7-2.3,12.3,0.7,14.4,6.8c2.5,7.2-1,13-9.6,16L132.7,94.3z M122.2,144l32.5-11.3l-3.2-9.2
		l-8.9-0.5l-6-17.5l3.8-1.3c5.7-2,7.3-0.6,13.8,6.3l16,16.8l19.9-6.9l-3.2-9.2l-8.3-0.2l-12.3-12.3c-3-3-5.3-4.4-7-5.4
		c6.1-6.2,8.6-14.5,5.1-24.6c-5.1-14.7-18-18.4-35.6-12.3l-8.2,2.8L96,68.6l3.2,9.2l9.2,0.4l17.5,50.7l-7,6L122.2,144z M29.1,108.3
		l7-6.5l-3.8-9.5L0,105.8l3.6,9l9.1,0.1L26,148.2c8.2,20.4,20.4,26.5,41.7,18c22.8-9.1,26.2-23.2,18.1-43.7L73.1,90.7l6.7-6.3
		L76,74.9L43.5,88.4l3.6,9l9.5-0.1l12.7,31.8c5,12.5,5,19.5-6.3,24c-10.4,4.1-15.8,0.8-20.6-11.4L29.1,108.3z M400.9,259.1h16.8
		l-8.2-26.2L400.9,259.1z M324.4,226.5h-8.9v22.6h6.2c4.3,0,7.6-1,10-3c2.4-2,3.6-4.9,3.6-8.6c0-3.3-1-6-3-8
		C330.4,227.6,327.8,226.5,324.4,226.5z M766.3,190.3H563c0-7.7,0-12.5,0-12.5l-84.9-24.4l-85.3,24.4c0,0,0,4.7,0,12.5h-202
		l21.4,65.4l-21.4,65.6h206c13.7,19.8,58.6,41.8,75,49.4c0,0,0.1,0,0.1,0.1c0.3,0.1,0.6,0.3,0.8,0.4c0,0,0.1,0,0.1,0.1
		c0.3,0.1,0.5,0.2,0.8,0.3c0,0,0,0,0,0c1,0.5,1.9,0.8,2.5,1.1c0,0,0.1,0,0.1,0.1c0.1,0.1,0.2,0.1,0.3,0.1c0.1,0,0.1,0.1,0.2,0.1
		c0.1,0,0.2,0.1,0.3,0.1c0.1,0,0.1,0,0.2,0.1c0.1,0,0.1,0.1,0.2,0.1c0.1,0,0.1,0,0.2,0.1c0.1,0,0.1,0,0.1,0.1c0,0,0.1,0,0.1,0
		c0.1,0,0.1,0.1,0.1,0.1s0.1,0,0.1-0.1c0,0,0,0,0.1,0c0,0,0.1,0,0.1,0c0.1,0,0.1,0,0.2-0.1c0,0,0.1,0,0.2-0.1c0.1,0,0.1-0.1,0.2-0.1
		c0.1,0,0.2-0.1,0.2-0.1c0.1,0,0.1-0.1,0.2-0.1c0.1,0,0.2-0.1,0.3-0.1c0.1,0,0.2-0.1,0.3-0.1c0.1,0,0.2-0.1,0.3-0.1
		c0,0,0.1,0,0.1-0.1c0.3-0.1,0.7-0.3,1-0.5c0.1,0,0.1-0.1,0.2-0.1c0.2-0.1,0.4-0.2,0.5-0.2c0.1,0,0.2-0.1,0.3-0.1
		c0.2-0.1,0.4-0.2,0.6-0.3c0.1-0.1,0.2-0.1,0.3-0.2c0.2-0.1,0.4-0.2,0.6-0.3c0.1-0.1,0.2-0.1,0.3-0.2c0.2-0.1,0.5-0.2,0.7-0.3
		c0.1,0,0.2-0.1,0.3-0.1c0.3-0.1,0.5-0.2,0.8-0.4c0.1,0,0.2-0.1,0.2-0.1c1.3-0.6,2.8-1.3,4.4-2c0.1,0,0.2-0.1,0.3-0.1
		c0.3-0.2,0.7-0.3,1-0.5c0.1-0.1,0.2-0.1,0.3-0.2c0.4-0.2,0.7-0.3,1.1-0.5c0.1-0.1,0.2-0.1,0.3-0.2c0.4-0.2,0.7-0.4,1.1-0.5
		c0.1,0,0.2-0.1,0.3-0.1c2.3-1.1,4.7-2.3,7.2-3.6c0.1,0,0.1-0.1,0.2-0.1c0.5-0.2,0.9-0.5,1.4-0.7c0.1-0.1,0.2-0.1,0.3-0.2
		c0.5-0.2,0.9-0.5,1.4-0.7l0.3-0.1c0.5-0.3,1-0.5,1.5-0.8c0.1,0,0.1-0.1,0.1-0.1c2.7-1.4,5.5-2.9,8.3-4.5c0.1,0,0.1-0.1,0.2-0.1
		c0.5-0.3,1-0.6,1.5-0.9c0.1-0.1,0.2-0.1,0.3-0.2c0.5-0.3,1-0.6,1.5-0.9c0.1,0,0.2-0.1,0.3-0.1c0.5-0.3,1-0.6,1.6-0.9
		c0,0,0.1,0,0.1-0.1c2.8-1.6,5.7-3.4,8.4-5.1c0.1,0,0.1-0.1,0.2-0.1c0.5-0.3,1-0.6,1.5-0.9c0.1-0.1,0.2-0.1,0.3-0.2
		c0.5-0.3,1-0.6,1.4-0.9c0.1-0.1,0.2-0.1,0.3-0.2c0.5-0.3,1-0.7,1.5-1c0,0,0.1,0,0.1-0.1c2.2-1.5,4.3-2.9,6.3-4.4c0,0,0,0,0,0
		c0.5-0.3,0.9-0.7,1.4-1c0.1-0.1,0.2-0.1,0.3-0.2c0.4-0.3,0.8-0.6,1.2-1l0.3-0.2c0.4-0.3,0.8-0.6,1.2-1c0.1-0.1,0.2-0.1,0.3-0.2
		c0.4-0.3,0.8-0.7,1.2-1c0,0,0.1-0.1,0.1-0.1c1.8-1.5,3.4-3,5-4.5c0.1-0.1,0.1-0.1,0.2-0.2c0.3-0.3,0.6-0.6,1-1
		c0.1-0.1,0.2-0.2,0.3-0.3c0.3-0.3,0.6-0.6,0.9-0.9c0.1-0.1,0.2-0.2,0.3-0.3c0.3-0.3,0.6-0.6,0.8-0.9c0.1-0.1,0.2-0.2,0.3-0.3
		c0.3-0.3,0.5-0.6,0.8-0.9c0.1-0.1,0.1-0.1,0.2-0.2c0.9-1.1,1.8-2.2,2.5-3.4h207.1l-21.4-65.6L766.3,190.3z M359.1,291.3h-20.2
		l-9.2-20.4c-2-4.4-3.5-7.2-4.6-8.4c-1.1-1.2-3.1-1.8-5.8-1.8l-3.8,0V279l7.9,2.8v9.6h-32.9v-9.6l8.2-2.8v-52.4l-8.2-3.3v-9.2
		l25.1-0.6h8.3c9.1,0,16.1,1.9,21,5.7c4.9,3.8,7.4,9.4,7.4,16.8c0,9.8-4.1,16.7-12.3,20.9c1.8,2.1,3.3,4.5,4.6,7.2l7.3,15.1l7.4,2.5
		V291.3z M450.4,291.3h-34.7v-9.6l8.2-2.5l-2.6-8.3h-24.2l-2.7,8.2l8.5,2.6v9.6h-32.9v-9.6l8-2.5l24-65.3l17.4-0.3l23.4,65.7
		l7.6,2.5V291.3z M523.7,280.6c-6.5,7.1-15.4,10.7-26.5,10.7h-33.8v-9.6l8.2-2.8v-52.4l-8.2-3.3v-9.2l25.1-0.6h10.4
		c11.1,0,19.6,3.2,25.6,9.7c6,6.5,9,15.9,9,28.1C533.5,263.7,530.2,273.5,523.7,280.6z M580.4,223.2l-8.2,3.3V279l8.2,2.8v9.6h-33.2
		v-9.6l8.2-2.8v-52.4l-8.2-3.3v-9.2l33.2-0.6V223.2z M654.1,281.4c-6.7,7.6-15.5,11.4-26.4,11.4c-10.9,0-19.3-3.4-25.1-10.2
		c-5.8-6.8-8.7-16.6-8.7-29.6c0-12.7,3.2-22.6,9.6-29.9c6.4-7.3,15.2-10.9,26.3-10.9c10.9,0,19.4,3.4,25.3,10.3c6,6.9,9,16.5,9,28.9
		C664.2,263.8,660.8,273.8,654.1,281.4z M498.3,226.5h-9.8v51.9h9.1c5.7,0,10-2,13.1-6.1c3.1-4.1,4.6-10.9,4.6-20.4
		c0-9-1.4-15.5-4.3-19.4C508,228.5,503.8,226.5,498.3,226.5z M629.3,226c-5.7,0-10,2-12.9,6.1c-2.9,4.1-4.4,10.9-4.4,20.4
		c0,9,1.3,15.7,4,20c2.7,4.3,6.7,6.5,12.2,6.5c5.7,0,10.1-2.1,13.1-6.4c3-4.2,4.5-11.1,4.5-20.7c0-9-1.4-15.5-4.1-19.7
		C638.9,228.1,634.8,226,629.3,226z"/>
</g>
</svg>
