<svg width="143" height="54" viewBox="0 0 143 54" fill="none" xmlns="http://www.w3.org/2000/svg">
<path d="M60.0967 37.2386H62.5633L61.359 33.4062L60.0967 37.2386Z" fill="#FFFDFB"/>
<path d="M74.4179 32.4658H72.9814V40.0726H74.3163C75.1433 40.0726 75.7963 39.7689 76.246 39.176C76.6958 38.5831 76.9135 37.5852 76.9135 36.1969C76.9135 34.8809 76.7103 33.9264 76.2751 33.348C75.8543 32.7551 75.2304 32.4658 74.4179 32.4658Z" fill="#FFFDFB"/>
<path d="M113.854 27.145H83.9359C83.9359 26.017 83.9359 25.3228 83.9359 25.3228L71.4433 21.7363L58.8928 25.3228C58.8928 25.3228 58.8928 26.017 58.8928 27.145H29.1777L32.3263 36.733L29.1777 46.35H59.4877C61.9688 49.922 71.4143 54.0002 71.4143 54.0002C71.4143 54.0002 80.9469 50.0088 83.3845 46.35H113.854L110.706 36.733L113.854 27.145ZM53.9451 41.9682H50.9852L49.6359 38.9746C49.3457 38.3238 49.1135 37.9189 48.9539 37.7454C48.7943 37.5718 48.5041 37.485 48.0979 37.485H47.532V40.1604L48.6928 40.5654V41.9682H43.8466V40.5654L45.0509 40.1604V32.4669L43.8466 31.9752V30.6302L47.532 30.5435H48.7508C50.0856 30.5435 51.1158 30.8182 51.8413 31.3822C52.5667 31.9318 52.9295 32.7561 52.9295 33.8552C52.9295 35.2869 52.3201 36.3137 51.1158 36.921C51.377 37.2392 51.6091 37.5863 51.7832 37.9767L52.8569 40.1894L53.9451 40.5654V41.9682ZM67.3807 41.9682H62.288V40.5654L63.4922 40.1894L63.1005 38.9746H59.5457L59.1395 40.1749L60.3873 40.5654V41.9682H55.5411V40.5654L56.7164 40.1894L60.2422 30.6013L62.8103 30.5579L66.2635 40.1894L67.3807 40.5654V41.9682ZM78.1612 40.3918C77.2035 41.4331 75.8977 41.9682 74.2581 41.9682H69.2815V40.5654L70.4857 40.1604V32.4669L69.2815 31.9752V30.6302L72.9668 30.5435H74.4903C76.1153 30.5435 77.3777 31.0207 78.2627 31.9607C79.1478 32.9152 79.5976 34.289 79.5976 36.0823C79.5976 37.9189 79.1188 39.3506 78.1612 40.3918ZM86.504 31.9752L85.2997 32.4669V40.1604L86.504 40.5654V41.9682H81.6144V40.5654L82.8186 40.1604V32.4669L81.6144 31.9752V30.6302L86.504 30.5435V31.9752ZM97.3279 40.5075C96.3413 41.6211 95.0355 42.1706 93.4394 42.1706C91.8434 42.1706 90.6101 41.6789 89.7541 40.6811C88.898 39.6832 88.4773 38.237 88.4773 36.3426C88.4773 34.4915 88.9561 33.0309 89.8992 31.9607C90.8423 30.8905 92.1336 30.3555 93.7732 30.3555C95.3837 30.3555 96.617 30.8616 97.5021 31.8739C98.3871 32.8862 98.8224 34.289 98.8224 36.1112C98.8224 37.9334 98.3291 39.394 97.3279 40.5075Z" fill="#FFFDFB"/>
<path d="M48.8379 32.4658H47.5176V35.7775H48.4317C49.0556 35.7775 49.5489 35.6329 49.9116 35.3292C50.2598 35.04 50.4485 34.6206 50.4485 34.0711C50.4485 33.5938 50.3034 33.1889 50.0132 32.8997C49.723 32.6104 49.3312 32.4658 48.8379 32.4658Z" fill="#FFFDFB"/>
<path d="M93.6858 32.3799C92.8587 32.3799 92.2203 32.6836 91.7995 33.2765C91.3788 33.8694 91.1611 34.8673 91.1611 36.2556C91.1611 37.5861 91.3498 38.555 91.7415 39.1913C92.1333 39.8276 92.7281 40.1458 93.5261 40.1458C94.3677 40.1458 95.0206 39.8276 95.4559 39.2202C95.9057 38.5984 96.1233 37.5861 96.1233 36.1833C96.1233 34.8673 95.9202 33.8984 95.5139 33.291C95.1077 32.6836 94.4983 32.3799 93.6858 32.3799Z" fill="#FFFDFB"/>
<path d="M5.07826 14.5049L4.49788 13.2178L0 15.3002L0.536844 16.515L1.82817 16.4716L3.903 21.1138C4.54141 22.5455 5.32492 23.4421 6.26802 23.8181C7.21112 24.1941 8.40089 24.064 9.85182 23.4277C11.3753 22.748 12.3039 21.9092 12.6376 20.9114C12.9713 19.899 12.7972 18.6698 12.1443 17.2092L10.171 12.7839L11.0706 11.8584L10.4902 10.5713L5.99234 12.6538L6.52919 13.8685L7.86404 13.7962L9.83731 18.2215C10.2436 19.1326 10.4177 19.8557 10.3306 20.3618C10.2581 20.868 9.83731 21.2874 9.09733 21.62C8.38638 21.9381 7.82052 21.9671 7.37073 21.7501C6.92094 21.5187 6.51468 20.9837 6.13744 20.1304L4.06261 15.4882L5.07826 14.5049Z" fill="#FFFDFB"/>
<path d="M21.5175 16.9058L20.734 14.3751L21.2708 14.216C21.6626 14.1003 21.9527 14.1003 22.1704 14.2015C22.3735 14.3172 22.7217 14.6354 23.186 15.1704L25.3479 17.6L28.1917 16.7178L27.771 15.3874L26.6247 15.3584L24.9417 13.5797C24.6515 13.2615 24.3323 13.0012 23.984 12.7843C24.9707 11.8587 25.2464 10.7163 24.8256 9.35687C24.5064 8.33009 23.9115 7.6504 23.07 7.3467C22.2139 7.02855 21.1547 7.07193 19.8634 7.47686L18.7027 7.8384L15.1914 9.00979L15.5832 10.2824L16.8745 10.3836L19.1379 17.6578L18.1078 18.3954L18.5285 19.7259L23.1715 18.2942L22.7653 16.9637L21.5175 16.9058ZM20.5163 9.24118C20.9806 9.09656 21.4014 9.12548 21.7641 9.31348C22.1269 9.51595 22.388 9.8341 22.5186 10.2969C22.6782 10.803 22.6347 11.2513 22.3735 11.6418C22.1269 12.0323 21.6916 12.307 21.0967 12.495L20.2261 12.7698L19.254 9.63164L20.5163 9.24118Z" fill="#FFFDFB"/>
<path d="M28.9902 4.97484L29.2659 6.27639L30.5427 6.49331L32.1242 13.9411C31.6309 14.2158 31.2682 14.4327 31.0215 14.5774L31.3117 15.9368L36.2594 14.8955C38.9871 14.3171 40.1189 12.9432 39.6546 10.7884C39.3934 9.54472 38.4648 8.86502 36.8688 8.74933C38.044 8.08409 38.4938 7.08624 38.2036 5.75577C38.015 4.85915 37.5507 4.25176 36.8398 3.91915C36.1143 3.60099 35.2292 3.54314 34.1701 3.77453L32.516 4.12161L28.9902 4.97484ZM36.419 10.181C36.8107 10.3835 37.0719 10.7595 37.188 11.3235C37.275 11.7573 37.217 12.1333 36.9703 12.4515C36.7382 12.7697 36.3464 12.9721 35.7951 13.0878L34.4893 13.3626L33.8363 10.2967L34.7504 10.1087C35.4759 9.9641 36.0272 9.99303 36.419 10.181ZM34.2716 5.71239C34.6634 5.62562 35.0116 5.669 35.3018 5.81362C35.592 5.95823 35.7806 6.23301 35.8676 6.63793C36.0708 7.60686 35.592 8.22871 34.4167 8.47456L33.5026 8.66256L32.9368 6.00162L34.2716 5.71239Z" fill="#FFFDFB"/>
<path d="M46.88 1.70645L44.544 11.5693L43.4268 12.0754L43.6009 13.4638L48.418 12.8708L48.2438 11.4825L46.9525 11.2511L47.1992 10.0219L50.7394 9.58804L51.2763 10.7305L50.1301 11.2511L50.3042 12.6394L55.3824 12.0176L55.2083 10.6293L54.0476 10.3979L49.4336 1.35938L46.88 1.70645ZM49.9995 7.95388L47.5474 8.25757L48.3454 4.32401L49.9995 7.95388Z" fill="#FFFDFB"/>
<path d="M61.868 9.83391L61.6503 4.36741L66.2353 11.4536L68.9195 11.3524L68.5423 1.95232L69.732 1.41724L69.674 0L65.1036 0.260309L65.1616 1.59078L66.3514 2.02463L66.569 7.53451L61.9405 0.303694L58.0811 0.53508L58.1391 1.86555L59.3579 2.2994L59.6626 9.90621L58.4728 10.3545L58.5308 11.7428L63.1883 11.5548L63.1303 10.1665L61.868 9.83391Z" fill="#FFFDFB"/>
<path d="M80.3817 8.08404L80.1641 11.1499L80.6429 11.3235C80.9621 11.4536 81.4264 11.5838 82.0213 11.7284C82.6161 11.873 83.182 11.9598 83.7043 12.0031C84.9812 12.0899 86.0403 11.8296 86.8964 11.2367C87.7524 10.6293 88.2167 9.76159 88.2893 8.5902C88.3328 7.99727 88.2312 7.47666 87.9991 7.02835C87.7669 6.56557 87.4477 6.21849 87.0705 5.97265C86.6787 5.7268 86.258 5.48095 85.8082 5.26403C85.3584 5.0471 84.9376 4.8591 84.5459 4.70002C84.1541 4.55541 83.8349 4.35294 83.5738 4.12156C83.3271 3.89017 83.211 3.62986 83.2255 3.34063C83.24 3.00801 83.4142 2.7477 83.7188 2.5597C84.0235 2.3717 84.4588 2.28493 84.9957 2.32832C85.46 2.35724 85.9243 2.47293 86.3886 2.66093L86.6933 4.04925L88.1732 4.15048L88.4489 1.24369L87.9846 1.05569C87.6654 0.925539 87.2156 0.795384 86.6352 0.636306C86.0548 0.49169 85.5035 0.390458 84.9666 0.361535C83.7624 0.274765 82.7612 0.506151 81.9632 1.04123C81.1652 1.57631 80.7299 2.38616 80.6574 3.47079C80.6139 4.09264 80.7154 4.62772 80.9476 5.10495C81.1797 5.58218 81.4989 5.94372 81.8762 6.20403C82.2534 6.46434 82.6742 6.71019 83.1385 6.94158C83.5883 7.17296 84.0235 7.36096 84.4153 7.50558C84.807 7.6502 85.1263 7.8382 85.3874 8.06958C85.6341 8.30097 85.7502 8.56128 85.7356 8.85051C85.7066 9.25544 85.5035 9.55913 85.1117 9.76159C84.72 9.96406 84.2557 10.0508 83.7043 10.0074C83.0804 9.96406 82.5726 9.81944 82.1518 9.55913L82.0067 8.19974L80.3817 8.08404Z" fill="#FFFDFB"/>
<path d="M95.8485 11.2224L96.1532 9.11099L96.9947 9.22669C98.4601 9.42915 99.6354 9.25561 100.506 8.70607C101.377 8.14206 101.913 7.21652 102.102 5.90051C102.247 4.85927 102.029 3.99158 101.42 3.31188C100.825 2.61772 99.9111 2.19834 98.7068 2.0248L97.1978 1.80787L93.527 1.37402L93.3383 2.69003L94.4701 3.32634L93.4109 10.8753L92.1631 11.1067L91.96 12.495L96.8206 13.1747L97.0092 11.7864L95.8485 11.2224ZM98.1845 3.84696C98.7213 3.91927 99.0985 4.13619 99.3307 4.5122C99.5628 4.87374 99.6499 5.32205 99.5774 5.85713C99.4903 6.43559 99.2581 6.85498 98.8519 7.11529C98.4601 7.3756 97.9233 7.44791 97.2559 7.36114L96.4143 7.24544L96.9221 3.67342L98.1845 3.84696Z" fill="#FFFDFB"/>
<path d="M110.982 4.29492L105.41 12.755L104.191 12.8562L103.872 14.2156L108.602 15.3002L108.921 13.9408L107.79 13.2901L108.443 12.2199L111.925 13.0153L112.041 14.2734L110.778 14.3602L110.459 15.7196L115.436 16.8621L115.755 15.5027L114.74 14.8953L113.506 4.83L110.982 4.29492ZM111.78 11.222L109.371 10.6725L111.46 7.24509L111.78 11.222Z" fill="#FFFDFB"/>
<path d="M127.682 12.7257L129.176 13.2174L130.221 10.354L129.8 10.0069C129.524 9.77554 129.118 9.51523 128.567 9.19707C128.015 8.87892 127.464 8.63307 126.913 8.45953C125.331 7.93891 123.909 8.02568 122.647 8.7343C121.385 9.44292 120.456 10.6866 119.861 12.4654C119.281 14.2153 119.252 15.6903 119.803 16.8907C120.34 18.091 121.399 18.9442 122.952 19.4648C123.402 19.6094 123.866 19.6962 124.345 19.7251C124.823 19.7541 125.244 19.7396 125.578 19.6962C125.926 19.6528 126.26 19.5805 126.594 19.4793C126.927 19.3781 127.145 19.3058 127.261 19.2479C127.363 19.2045 127.45 19.1611 127.508 19.1322L127.13 17.4836L126.666 17.6137C126.347 17.7005 125.912 17.7584 125.36 17.7873C124.823 17.8017 124.33 17.7439 123.88 17.5848C122.154 17.0064 121.675 15.5602 122.444 13.2174C123.271 10.73 124.519 9.76108 126.202 10.3251C126.869 10.542 127.406 10.8168 127.827 11.1349L127.682 12.7257Z" fill="#FFFDFB"/>
<path d="M140.189 16.067L140.058 17.3251L141.422 17.947L142.713 15.127L138.622 13.2614L135.227 11.8008L134.675 13.0156L135.575 13.9556L132.397 20.8827L131.135 20.7381L130.555 22.0107L138.187 25.4959L139.521 22.5747L138.172 21.9528L137.287 23.0085L134.704 21.8227L135.996 19.0027L138.941 20.3476L139.681 18.7424L136.736 17.3974L137.853 14.9679L140.189 16.067Z" fill="#FFFDFB"/>
</svg>
