<svg width="60" height="60" viewBox="0 0 533 533" fill="" xmlns="http://www.w3.org/2000/svg">
<path fill-rule="evenodd" clip-rule="evenodd" d="M93.2828 2.56004C44.8244 12.2744 9.25906 49.6179 1.65551 98.7668C0.15422 108.474 -0.266501 157.583 0.15422 274.067C0.805079 454.422 0.0283622 443.026 13.5813 470.943C22.6376 489.595 43.8661 510.773 62.7176 519.961C90.5715 533.537 81.704 532.973 266.785 532.973C452.297 532.973 441.298 533.699 469.954 519.569C494.146 507.641 512.773 487.828 523.384 462.739C533.039 439.909 532.883 443.151 532.883 265.078V99.6657L528.737 85.345C522.78 64.7711 514.962 51.272 499.759 35.3116C488.766 23.7741 483.532 19.8869 470.093 13.2776C442.219 -0.424568 446.597 -0.14229 264.987 0.0482931C141.229 0.179544 102.321 0.747698 93.2828 2.56004ZM390.717 187.893C393.976 191.155 394.35 196.38 391.68 201.369C387.741 208.728 371.966 203.846 371.966 195.27C371.966 186.575 384.476 181.654 390.717 187.893ZM121.126 222.076C123.447 223.595 125.777 225.967 126.306 227.346C127.066 229.327 129.418 228.766 137.543 224.669C151.916 217.417 162.781 216.193 172.921 220.679C185.469 226.229 187.007 232.222 186.383 273.168L185.877 306.43H177.787H169.696L169.207 272.818L168.718 239.207L163.813 235.336C158.151 230.868 148.55 231.323 137.52 236.584L131.04 239.672V273.6V307.527L122.5 306.979L113.959 306.43L113.06 271.671C112.23 239.586 111.884 236.704 108.565 234.214C104.123 230.88 91.4399 231.979 81.9144 236.521L75.3033 239.672V273.501V307.329H67.2125H59.1217V264.179V221.028H66.1032C71.6409 221.028 73.286 221.794 74.0537 224.731L75.0228 228.435L82.3279 224.71C97.0424 217.202 112.125 216.179 121.126 222.076ZM348.143 221.263C352.079 222.504 354.357 224.571 355.114 227.592C356.768 234.183 353.903 236.055 345.662 233.768C335.633 230.983 323.052 231.375 318.428 234.615C313.013 238.407 313.04 247.03 318.477 250.482C320.702 251.893 328.779 255.624 336.427 258.77C354.055 266.021 359.38 271.865 359.38 283.956C359.38 293.794 354.252 301.592 344.333 306.84C334.061 312.276 302.243 309.663 297.827 303.023C297.101 301.93 296.495 299.124 296.479 296.788C296.455 292.957 297.027 292.649 302.295 293.67C305.508 294.292 313.985 295.299 321.132 295.905C338.046 297.342 343.686 294.334 342.851 284.321C342.309 277.825 342.01 277.584 325.663 270.495C305.959 261.949 300.159 256.775 298.782 246.506C295.794 224.23 319.338 212.189 348.143 221.263ZM466.989 221.204C471.801 222.881 472.651 224.07 472.651 229.124V235.071L458.627 234.11C434.802 232.477 427.702 239.408 427.702 264.299C427.702 288.697 435.099 295.86 458.627 294.248C473.556 293.225 475.458 294.075 473.721 300.999C472.241 306.893 462.737 309.656 446.717 308.847C429.657 307.986 420.383 302.283 414.099 288.785C409.279 278.429 408.124 258.319 411.629 245.701C414.083 236.862 423.118 226.7 432.181 222.583C440.39 218.854 458.221 218.147 466.989 221.204ZM224.873 255.351C225.429 289.481 225.458 289.695 229.922 293.305C235.228 297.599 246.674 296.988 257.477 291.836L264.088 288.685V254.856V221.028H271.987C277.53 221.028 280.211 221.876 280.977 223.872C282.401 227.581 282.401 300.776 280.977 304.485C279.274 308.924 267.607 308.322 266.408 303.734C265.89 301.756 265.255 300.138 264.995 300.138C264.736 300.138 259.773 302.333 253.968 305.015C241.186 310.92 226.024 311.697 218.591 306.824C208.3 300.082 207.507 296.934 206.834 260.157C206.493 241.537 206.671 225.114 207.226 223.665C207.908 221.891 210.873 221.028 216.277 221.028H224.316L224.873 255.351ZM390.844 264.179V306.43H382.753H374.663L374.177 266.018C373.911 243.79 374.105 224.528 374.611 223.212C375.225 221.608 378.054 221.002 383.187 221.373L390.844 221.927V264.179ZM473.079 341.579C476.776 342.605 480.686 345.099 481.767 347.12C484.153 351.579 482.565 364.956 477.813 380.416C472.275 398.435 455.002 421.442 449.544 418.069C448.591 417.479 450.907 408.362 454.859 397.139C462.381 375.785 463.768 363.289 459.046 359.371C456.018 356.858 437.598 356.131 416.016 357.672C405.695 358.409 403.43 358.091 403.43 355.91C403.43 352.634 416.163 345.425 427.427 342.319C437.724 339.482 463.994 339.056 473.079 341.579ZM119.2 375.857C172.925 396.794 225.183 405.633 285.236 403.941C334.608 402.549 377.156 394.084 422.172 376.7C438.486 370.398 442.731 370.056 444.587 374.891C446.29 379.327 444.152 381.72 430.807 390.316C379.925 423.1 307.419 440.574 244.5 435.22C187.722 430.387 138.09 413.304 93.0905 383.104C68.6563 366.705 54.483 353.994 56.058 349.887C57.0846 347.212 60.0764 348.237 79.1743 357.811C91.2404 363.859 109.25 371.978 119.2 375.857Z" fill="#459799"/>
</svg>
