<svg width="119" height="45" viewBox="0 0 119 45" fill="none" xmlns="http://www.w3.org/2000/svg">
<path d="M50.082 31.032H52.1375L51.134 27.8384L50.082 31.032Z" fill="#000300"/>
<path d="M62.0154 27.0552H60.8184V33.3942H61.9307C62.6199 33.3942 63.164 33.1411 63.5389 32.647C63.9137 32.1529 64.095 31.3214 64.095 30.1644C64.095 29.0678 63.9258 28.2724 63.563 27.7903C63.2124 27.2962 62.6925 27.0552 62.0154 27.0552Z" fill="#000300"/>
<path d="M94.879 22.6205H69.9472C69.9472 21.6805 69.9472 21.102 69.9472 21.102L59.5368 18.1133L49.078 21.102C49.078 21.102 49.078 21.6805 49.078 22.6205H24.3154L26.9392 30.6105L24.3154 38.6247H49.5737C51.6413 41.6014 59.5126 44.9999 59.5126 44.9999C59.5126 44.9999 67.4564 41.6737 69.4877 38.6247H94.879L92.2553 30.6105L94.879 22.6205ZM44.9549 34.9731H42.4883L41.3639 32.4785C41.122 31.9362 40.9286 31.5988 40.7956 31.4541C40.6626 31.3095 40.4208 31.2372 40.0822 31.2372H39.6107V33.4667L40.5779 33.8041V34.9731H36.5395V33.8041L37.5431 33.4667V27.0554L36.5395 26.6456V25.5249L39.6107 25.4526H40.6263C41.7387 25.4526 42.5972 25.6815 43.2017 26.1515C43.8063 26.6095 44.1085 27.2964 44.1085 28.2123C44.1085 29.4054 43.6007 30.2611 42.5972 30.7672C42.8148 31.0323 43.0082 31.3216 43.1533 31.647L44.0481 33.4908L44.9549 33.8041V34.9731ZM56.1513 34.9731H51.9073V33.8041L52.9109 33.4908L52.5844 32.4785H49.6221L49.2835 33.4788L50.3234 33.8041V34.9731H46.2849V33.8041L47.2643 33.4908L50.2024 25.5008L52.3426 25.4646L55.2203 33.4908L56.1513 33.8041V34.9731ZM65.1349 33.6595C64.3369 34.5272 63.2487 34.9731 61.8824 34.9731H57.7352V33.8041L58.7388 33.4667V27.0554L57.7352 26.6456V25.5249L60.8063 25.4526H62.0759C63.4301 25.4526 64.482 25.8503 65.2196 26.6336C65.9571 27.429 66.332 28.5739 66.332 30.0682C66.332 31.5988 65.933 32.7918 65.1349 33.6595ZM72.0873 26.6456L71.0838 27.0554V33.4667L72.0873 33.8041V34.9731H68.0126V33.8041L69.0162 33.4667V27.0554L68.0126 26.6456V25.5249L72.0873 25.4526V26.6456ZM81.1073 33.7559C80.2851 34.6839 79.1969 35.1419 77.8669 35.1419C76.5368 35.1419 75.5091 34.7321 74.7957 33.9006C74.0823 33.069 73.7317 31.8639 73.7317 30.2852C73.7317 28.7426 74.1307 27.5254 74.9166 26.6336C75.7025 25.7418 76.7787 25.2959 78.145 25.2959C79.4871 25.2959 80.5148 25.7177 81.2524 26.5613C81.9899 27.4049 82.3526 28.5739 82.3526 30.0923C82.3526 31.6108 81.9416 32.828 81.1073 33.7559Z" fill="#000300"/>
<path d="M40.6989 27.0552H39.5986V29.8149H40.3604C40.8803 29.8149 41.2914 29.6944 41.5937 29.4413C41.8838 29.2003 42.041 28.8508 42.041 28.3929C42.041 27.9952 41.9201 27.6577 41.6783 27.4167C41.4365 27.1757 41.11 27.0552 40.6989 27.0552Z" fill="#000300"/>
<path d="M78.0726 26.9829C77.3834 26.9829 76.8514 27.236 76.5008 27.7301C76.1501 28.2242 75.9688 29.0557 75.9688 30.2127C75.9688 31.3214 76.1259 32.1288 76.4524 32.6591C76.7789 33.1894 77.2746 33.4545 77.9396 33.4545C78.6409 33.4545 79.185 33.1894 79.5477 32.6832C79.9225 32.165 80.1039 31.3214 80.1039 30.1524C80.1039 29.0557 79.9346 28.2483 79.5961 27.7421C79.2575 27.236 78.7497 26.9829 78.0726 26.9829Z" fill="#000300"/>
<path d="M4.23188 12.0875L3.74824 11.015L0 12.7504L0.44737 13.7627L1.52348 13.7265L3.2525 17.595C3.78451 18.7881 4.43743 19.5353 5.22335 19.8486C6.00927 20.1619 7.00074 20.0535 8.20985 19.5232C9.47941 18.9568 10.2532 18.2578 10.5313 17.4263C10.8094 16.5827 10.6643 15.5583 10.1202 14.3411L8.47585 10.6534L9.2255 9.88214L8.74186 8.80957L4.99362 10.545L5.44099 11.5573L6.55337 11.497L8.19776 15.1847C8.53631 15.944 8.6814 16.5465 8.60885 16.9683C8.5484 17.3901 8.19776 17.7396 7.58111 18.0168C6.98865 18.2819 6.5171 18.306 6.14227 18.1253C5.76745 17.9324 5.4289 17.4865 5.11453 16.7755L3.3855 12.907L4.23188 12.0875Z" fill="#000300"/>
<path d="M17.9309 14.0882L17.278 11.9792L17.7253 11.8466C18.0518 11.7502 18.2936 11.7502 18.475 11.8346C18.6443 11.931 18.9345 12.1961 19.3214 12.642L21.1229 14.6667L23.4928 13.9315L23.1422 12.8228L22.187 12.7987L20.7844 11.3164C20.5426 11.0513 20.2766 10.8343 19.9864 10.6536C20.8086 9.88228 21.0383 8.93022 20.6877 7.79739C20.4217 6.94174 19.9259 6.37533 19.2246 6.12225C18.5113 5.85712 17.6286 5.89328 16.5525 6.23071L15.5852 6.532L12.6592 7.50816L12.9856 8.56868L14.0617 8.65304L15.948 14.7149L15.0895 15.3295L15.4401 16.4382L19.3093 15.2451L18.9707 14.1364L17.9309 14.0882ZM17.0966 7.70098C17.4835 7.58047 17.8342 7.60457 18.1364 7.76124C18.4387 7.92996 18.6564 8.19508 18.7652 8.58073C18.8982 9.00253 18.8619 9.37612 18.6443 9.7015C18.4387 10.0269 18.076 10.2559 17.5803 10.4125L16.8548 10.6415L16.0447 8.02637L17.0966 7.70098Z" fill="#000300"/>
<path d="M24.1582 4.14587L24.3879 5.23049L25.4519 5.41126L26.7699 11.6177C26.3588 11.8467 26.0565 12.0275 25.851 12.148L26.0928 13.2808L30.2158 12.4131C32.489 11.931 33.4321 10.7862 33.0451 8.99051C32.8275 7.95409 32.0537 7.38768 30.7237 7.29127C31.703 6.73691 32.0779 5.90536 31.836 4.79664C31.6789 4.04946 31.2919 3.5433 30.6995 3.26612C30.0949 3.00099 29.3574 2.95278 28.4747 3.1456L27.0963 3.43484L24.1582 4.14587ZM30.3488 8.48435C30.6753 8.65307 30.8929 8.96641 30.9897 9.43641C31.0622 9.79795 31.0138 10.1113 30.8083 10.3764C30.6148 10.6415 30.2884 10.8103 29.8289 10.9067L28.7407 11.1357L28.1966 8.58076L28.9584 8.4241C29.5629 8.30358 30.0224 8.32769 30.3488 8.48435ZM28.5594 4.76049C28.8858 4.68818 29.176 4.72433 29.4178 4.84484C29.6596 4.96536 29.8168 5.19433 29.8894 5.53177C30.0587 6.33921 29.6596 6.85742 28.6803 7.06229L27.9185 7.21896L27.447 5.00151L28.5594 4.76049Z" fill="#000300"/>
<path d="M39.0662 1.42205L37.1195 9.64107L36.1885 10.0629L36.3336 11.2198L40.3478 10.7257L40.2027 9.56876L39.1266 9.37594L39.3322 8.35157L42.2824 7.99003L42.7298 8.94209L41.7746 9.37594L41.9197 10.5329L46.1515 10.0147L46.0064 8.85773L45.0392 8.66491L41.1942 1.13281L39.0662 1.42205ZM41.6657 6.62823L39.6223 6.88131L40.2874 3.60334L41.6657 6.62823Z" fill="#000300"/>
<path d="M51.5562 8.19492L51.3748 3.63951L55.1956 9.54467L57.4324 9.46031L57.1181 1.62693L58.1095 1.18103L58.0612 0L54.2525 0.216924L54.3008 1.32565L55.2923 1.68719L55.4737 6.27876L51.6166 0.253078L48.4004 0.4459L48.4488 1.55462L49.4644 1.91617L49.7183 8.25518L48.7269 8.62877L48.7752 9.7857L52.6565 9.62903L52.6081 8.4721L51.5562 8.19492Z" fill="#000300"/>
<path d="M66.9851 6.73638L66.8037 9.29127L67.2027 9.43588C67.4687 9.54434 67.8556 9.65281 68.3514 9.77332C68.8471 9.89383 69.3187 9.96614 69.7539 10.0023C70.818 10.0746 71.7006 9.85768 72.414 9.36357C73.1274 8.85742 73.5143 8.13434 73.5747 7.15818C73.611 6.66407 73.5264 6.23022 73.3329 5.85663C73.1394 5.47099 72.8734 5.18175 72.5591 4.97688C72.2326 4.77201 71.882 4.56713 71.5072 4.38636C71.1323 4.20559 70.7817 4.04893 70.4552 3.91636C70.1288 3.79585 69.8628 3.62713 69.6451 3.43431C69.4396 3.24148 69.3428 3.02456 69.3549 2.78353C69.367 2.50635 69.5121 2.28943 69.766 2.13276C70.0199 1.97609 70.3827 1.90378 70.83 1.93994C71.217 1.96404 71.6039 2.06045 71.9908 2.21712L72.2447 3.37405L73.478 3.45841L73.7077 1.03609L73.3208 0.879419C73.0548 0.770957 72.68 0.662495 72.1963 0.52993C71.7127 0.409416 71.2532 0.325057 70.8059 0.300954C69.8023 0.228646 68.968 0.421467 68.303 0.867368C67.638 1.31327 67.2753 1.98814 67.2148 2.892C67.1785 3.4102 67.2632 3.8561 67.4566 4.2538C67.6501 4.65149 67.9161 4.95278 68.2305 5.1697C68.5448 5.38663 68.8955 5.5915 69.2824 5.78432C69.6572 5.97714 70.0199 6.13381 70.3464 6.25432C70.6729 6.37484 70.9389 6.53151 71.1565 6.72433C71.3621 6.91715 71.4588 7.13407 71.4467 7.3751C71.4225 7.71254 71.2532 7.96562 70.9268 8.13434C70.6003 8.30305 70.2134 8.37536 69.7539 8.33921C69.234 8.30305 68.8108 8.18254 68.4602 7.96562L68.3393 6.83279L66.9851 6.73638Z" fill="#000300"/>
<path d="M79.8732 9.35199L80.1271 7.59249L80.8284 7.6889C82.0496 7.85762 83.029 7.71301 83.7545 7.25506C84.4799 6.78505 84.9273 6.01377 85.0845 4.91709C85.2054 4.0494 85.024 3.32631 84.5162 2.7599C84.0205 2.18144 83.2587 1.83195 82.2552 1.68733L80.9977 1.50656L77.9386 1.14502L77.7815 2.24169L78.7246 2.77195L77.8419 9.06276L76.8021 9.25558L76.6328 10.4125L80.6833 10.9789L80.8405 9.82199L79.8732 9.35199ZM81.8199 3.2058C82.2673 3.26606 82.5816 3.44683 82.7751 3.76016C82.9685 4.06145 83.0411 4.43504 82.9806 4.88094C82.9081 5.36299 82.7146 5.71248 82.3761 5.92941C82.0496 6.14633 81.6023 6.20659 81.0461 6.13428L80.3448 6.03787L80.768 3.06118L81.8199 3.2058Z" fill="#000300"/>
<path d="M92.4852 3.5791L87.8422 10.6291L86.8265 10.7135L86.5605 11.8463L90.5022 12.7502L90.7682 11.6174L89.8251 11.075L90.3692 10.1832L93.2711 10.8461L93.3678 11.8945L92.3159 11.9668L92.0499 13.0997L96.1971 14.0517L96.4631 12.9189L95.6168 12.4127L94.589 4.025L92.4852 3.5791ZM93.1502 9.3517L91.1431 8.89375L92.8842 6.03758L93.1502 9.3517Z" fill="#000300"/>
<path d="M106.401 10.6051L107.647 11.0148L108.517 8.62866L108.167 8.33943C107.937 8.14661 107.598 7.92968 107.139 7.66455C106.679 7.39942 106.22 7.19455 105.76 7.04993C104.443 6.61609 103.258 6.68839 102.206 7.27891C101.154 7.86943 100.38 8.90584 99.8842 10.3882C99.4006 11.8464 99.3764 13.0756 99.8359 14.0759C100.283 15.0761 101.166 15.7872 102.46 16.221C102.834 16.3415 103.221 16.4138 103.62 16.4379C104.019 16.462 104.37 16.45 104.648 16.4138C104.938 16.3777 105.216 16.3174 105.494 16.2331C105.773 16.1487 105.954 16.0885 106.051 16.0402C106.135 16.0041 106.208 15.9679 106.256 15.9438L105.942 14.57L105.555 14.6784C105.289 14.7508 104.926 14.799 104.467 14.8231C104.019 14.8351 103.608 14.7869 103.233 14.6543C101.795 14.1723 101.396 12.9671 102.036 11.0148C102.726 8.942 103.765 8.13456 105.168 8.60456C105.724 8.78533 106.172 9.0143 106.522 9.27943L106.401 10.6051Z" fill="#000300"/>
<path d="M116.824 13.3886L116.716 14.4371L117.852 14.9553L118.928 12.6053L115.519 11.0507L112.689 9.8335L112.23 10.8458L112.979 11.6291L110.331 17.4017L109.28 17.2812L108.796 18.3418L115.156 21.2461L116.268 18.8118L115.144 18.2935L114.406 19.1733L112.254 18.1851L113.33 15.8351L115.785 16.9558L116.401 15.6181L113.947 14.4974L114.878 12.4727L116.824 13.3886Z" fill="#000300"/>
</svg>
