<svg width="38" height="40" viewBox="0 0 38 40" fill="none" xmlns="http://www.w3.org/2000/svg">
<path d="M24.2634 29.0159L23.2769 36.8741C23.0772 38.4642 21.7196 39.6576 20.1102 39.6576H17.2344C15.6249 39.6576 14.2672 38.4642 14.0677 36.874L13.0812 29.0158C12.6607 25.6672 15.2829 22.7094 18.6722 22.7094C16.0326 22.7094 13.8851 20.571 13.8851 17.9427C13.8851 15.3143 16.0326 13.176 18.6722 13.176C21.3118 13.176 23.4593 15.3143 23.4593 17.9427C23.4593 20.571 21.3118 22.7094 18.6722 22.7094C22.0615 22.7094 24.6838 25.6672 24.2634 29.0159ZM18.6722 9.99822C13.6863 9.99822 9.6299 14.0373 9.6299 19.002C9.6299 20.7914 10.159 22.4591 11.0666 23.8622C10.4142 24.9659 10.0125 26.1986 9.88829 27.4713C7.7542 25.2776 6.43849 22.2901 6.43849 19.002C6.43849 12.2851 11.9265 6.82043 18.6722 6.82043C25.4179 6.82043 30.906 12.2851 30.906 19.002C30.906 22.2901 29.5903 25.2776 27.4563 27.4714C27.332 26.1986 26.9302 24.966 26.278 23.8623C27.1854 22.4591 27.7146 20.7914 27.7146 19.002C27.7146 14.0373 23.6582 9.99822 18.6722 9.99822ZM26.6335 35.7561L27.1247 31.8434C31.321 29.0956 34.0974 24.366 34.0974 19.002C34.0974 10.5328 27.1777 3.64263 18.6722 3.64263C10.1668 3.64263 3.24707 10.5328 3.24707 19.002C3.24707 24.366 6.0235 29.0956 10.2198 31.8434L10.7109 35.7561C4.41768 32.7791 0.0556641 26.3886 0.0556641 19.002C0.0556641 8.78059 8.40705 0.464844 18.6722 0.464844C28.9374 0.464844 37.2888 8.78059 37.2888 19.002C37.2888 26.3886 32.9268 32.7791 26.6335 35.7561Z" fill="#FFFDFB"/>
</svg>
